<svg version="1.2" xmlns="http://www.w3.org/2000/svg" viewBox="0 0 595 569" width="595" height="569">
	<title>Final - All Versions-pdf</title>
	<defs>
		<clipPath clipPathUnits="userSpaceOnUse" id="cp1">
			<path d="m0 0h1191v1684h-1191z"/>
		</clipPath>
		<clipPath clipPathUnits="userSpaceOnUse" id="cp2">
			<path d="m100.7 360.2q-0.18-0.9-0.33-1.8l-0.6-3.57h36.16v-126.31l5.24 5.26 120.7 121.05h9.66v-159.69h-39.28l-0.69-2.12c-3.77-11.72-10.3-22.37-19-31.08-14.6-14.59-34.21-22.72-54.86-22.72-20.64 0-40.26 8.13-54.85 22.72-14.6 14.6-22.72 34.21-22.72 54.86l0.03 13.76 27.57 27.66v7.61l-32.94-33.04v-0.96l-0.03-15.03c0-22.07 8.69-43.05 24.29-58.65 15.6-15.61 36.58-24.3 58.65-24.3 22.07 0 43.05 8.69 58.66 24.3 8.9 8.9 15.69 19.72 19.78 31.62h40.76v170.43h-17.26l-0.67-0.68-117.67-118v118.68zm-7.45 30.71l0.5-0.51c4.18 7.17 9.33 13.79 15.22 19.69 17.03 17.03 39.91 26.51 64 26.51 24.08 0 46.96-9.48 63.99-26.51 7.87-7.87 14.24-17.13 18.75-27.29l-109.04-109.37v-7.61l114.31 114.66 1.09 1.09-0.59 1.42c-4.82 11.55-11.88 22.05-20.72 30.9-18.04 18.04-42.28 28.08-67.79 28.08-25.51 0-49.76-10.04-67.8-28.08q-3.98-3.98-7.5-8.36-2.57-3.19-4.86-6.57l-10.18 10.14-5.36 5.36v-48.91h48.9l-5.35 5.36-7.81 7.81 4.42 7.05q3.27 4.57 7.28 8.58c12.84 12.85 30.09 19.99 48.26 19.99 18.16 0 35.41-7.14 48.26-19.99q3.69-3.69 6.78-7.9l-81.34-81.55v-7.61l86.52 86.75 1.8 1.81-1.45 2.1c-2.53 3.65-5.38 7.07-8.52 10.2-13.84 13.85-32.47 21.56-52.05 21.56-19.59 0-38.21-7.71-52.06-21.56-5.63-5.63-10.29-12.1-13.81-19.14-0.2-0.42-0.6-1.36-0.6-1.36l6.74-6.74h-30.61v30.61l7.2-7.2zm19.86-196.63q1.17-2.32 2.59-4.5h13.05l0.68 0.68c39.71 39.94 79.5 79.82 119.28 119.71v-92.19h-35.7v-2.94c-0.45-14.11-6.19-27.37-16.18-37.35-10.42-10.43-24.38-16.21-39.12-16.21-14.74 0-28.69 5.78-39.12 16.21-3.63 3.63-6.7 7.69-9.15 12.06l-0.14 0.25-0.09 0.16-0.05 0.09-0.14 0.25-0.25 0.47-0.02 0.03-0.13 0.25-0.13 0.26-0.13 0.25-0.1 0.19-0.03 0.07-0.13 0.25-0.12 0.26-0.01 0.03-0.12 0.23c-3.57 7.4-5.46 15.58-5.46 24.01q0 2.41 0.21 4.82l5.13 5.15v7.61l-10.29-10.33-0.11-1.09q-0.31-3.07-0.31-6.16c0-16.16 6.34-31.48 17.77-42.91 11.44-11.43 26.75-17.78 42.92-17.78 16.17 0 31.49 6.35 42.92 17.78 10.4 10.4 16.61 24.04 17.63 38.72h35.82v110.56l-5.24-5.26c-40.79-40.91-81.59-81.8-122.32-122.76h-8.04v142.22h-36.01v20.33q0.16 1.26 0.36 2.5h-5.43q-0.15-1-0.28-2.01l-0.02-0.15v-26.04h36.01z"/>
		</clipPath>
		<clipPath clipPathUnits="userSpaceOnUse" id="cp3">
			<path d="m462.81 329.38c0.79 1.38 1.87 2.31 3.1 3.02-6.55-2.6-10.64-9.18-10.07-16.21 0.57-7.02 5.67-12.85 12.55-14.37 5.85-0.82 11.84-0.59 17.64 0.57q0.14 0.03 0.28 0.06 4.41 0.88 8.62 2.51 4.18 1.62 8.03 3.94 2.83 1.7 5.43 3.77l-5.43 5.26-1.46 1.41c-3.02 3.02-6.28 6.05-9.43 9.07-5.68-6.41-14.99-9.43-23.33-7.38-3.51 0.85-7.5 3.27-6.29 7.5zm61.54-27.86h-22.61l-12.57-32.16q18.88-0.97 27.93 14.15zm-197.69-84.26h-20.56v-32.9c1.87-9.7 10.34-17.04 20.56-17.16zm35.06-84.03h20.55v32.53c-1.86 9.7-10.33 17.05-20.55 17.16zm72.98 6.95c7.82 0 15.04 2.57 20.85 6.91 6.41 7.56 10.27 17.33 10.27 27.98 0 20.23-13.81 37.18-32.55 41.94h55.64q-20.14 0.41-20.42 20.56v63.95h-20.55v-71.02l-1.45 1.36-6.09 5.71h-18.46c-12.47 0.71-19.23 8.21-20.56 20.53v-20.53q1.12-18.2 18.09-20.56h-7.62c-8.83-2.25-16.6-7.22-22.33-13.98 5.82 4.35 13.04 6.92 20.86 6.92 19.27 0 34.89-15.62 34.89-34.88 0-12.58-10.16-22.73-22.73-22.73-12.45 0-22.73 10.15-22.73 22.73 0-19.27 15.62-34.89 34.89-34.89zm-100.06 101.74c0.78 1.38 1.86 2.32 3.09 3.03-6.55-2.61-10.64-9.18-10.06-16.21 0.57-7.03 5.66-12.86 12.55-14.37 5.84-0.83 11.84-0.59 17.63 0.57q0.14 0.02 0.28 0.05 4.41 0.89 8.62 2.51 4.18 1.62 8.03 3.94 2.84 1.71 5.44 3.77l-5.44 5.26-1.45 1.41c-3.03 3.03-6.29 6.05-9.43 9.07-5.69-6.41-15-9.43-23.34-7.37-3.51 0.84-7.5 3.26-6.29 7.49zm21.53 34.46c-1-2.2-2.62-3.61-4.47-4.62 7.64 2.82 12.19 10.67 10.84 18.7-1.23 7.31-7.04 12.89-14.22 13.95l-0.75 0.07h24.67v20.67h-45.58c1.07-11.99 8.03-19.24 19.79-20.58l-0.26 0.01c-2.53 0.16-5.07 0.14-7.56-0.03-11.97-0.84-23.81-5.2-32.52-13.42l16.56-15.35c6.29 6.28 15.24 9.91 24.06 9.67 4.84-0.12 10.64-2.3 9.8-7.98q-0.18-0.73-0.36-1.09zm-29.51 91.82h45.58v7.6l13.55-12.56c6.29 6.28 15.24 9.91 24.06 9.67 4.84-0.12 10.64-2.3 9.8-7.98q-0.18-0.72-0.37-1.09c-0.99-2.2-2.61-3.61-4.46-4.61 7.64 2.81 12.19 10.66 10.84 18.69-1.23 7.31-7.04 12.89-14.22 13.95q-1.07 0.11-2.13 0.17-3.81 0.23-7.56-0.03c-10.64-0.75-21.18-4.27-29.51-10.82v7.68h-24.94c-12.27-1.09-19.54-8.4-20.64-20.67zm71.1-38.81c0.79 1.38 1.87 2.31 3.1 3.02-6.55-2.6-10.64-9.18-10.07-16.21 0.57-7.02 5.67-12.86 12.55-14.37 5.85-0.82 11.84-0.59 17.64 0.57q0.14 0.03 0.28 0.06 4.41 0.88 8.61 2.51 4.19 1.62 8.04 3.94 2.83 1.7 5.43 3.77l-5.43 5.26-1.46 1.41c-3.02 3.02-6.28 6.05-9.43 9.07-5.68-6.41-14.99-9.43-23.33-7.38-3.51 0.85-7.5 3.27-6.29 7.5zm86.57 34.46c-0.99-2.2-2.61-3.61-4.46-4.62 7.64 2.81 12.19 10.67 10.84 18.69-1.23 7.32-7.04 12.89-14.22 13.95q-1.07 0.11-2.13 0.18-3.81 0.23-7.56-0.03c-11.97-0.85-23.81-5.2-32.52-13.42l16.56-15.36c6.29 6.29 15.24 9.92 24.06 9.67 4.84-0.12 10.64-2.29 9.8-7.98q-0.18-0.72-0.37-1.08z"/>
		</clipPath>
	</defs>
	<style>
		.s0 { fill: #318dcc } 
		.s1 { fill: #328fca } 
		.s2 { fill: #328fc9 } 
		.s3 { fill: #3290c8 } 
		.s4 { fill: #3490c6 } 
		.s5 { fill: #3491c5 } 
		.s6 { fill: #3592c3 } 
		.s7 { fill: #3592c1 } 
		.s8 { fill: #3693c0 } 
		.s9 { fill: #3794bf } 
		.s10 { fill: #3794bd } 
		.s11 { fill: #3795bc } 
		.s12 { fill: #3896bb } 
		.s13 { fill: #3996b9 } 
		.s14 { fill: #3997b7 } 
		.s15 { fill: #3a98b6 } 
		.s16 { fill: #3a98b4 } 
		.s17 { fill: #3c99b3 } 
		.s18 { fill: #3c9ab1 } 
		.s19 { fill: #3c9baf } 
		.s20 { fill: #3d9bae } 
		.s21 { fill: #3e9cac } 
		.s22 { fill: #3e9dab } 
		.s23 { fill: #3f9da9 } 
		.s24 { fill: #3f9ea8 } 
		.s25 { fill: #409fa6 } 
		.s26 { fill: #419fa4 } 
		.s27 { fill: #41a0a3 } 
		.s28 { fill: #42a1a1 } 
		.s29 { fill: #42a19f } 
		.s30 { fill: #42a29e } 
		.s31 { fill: #44a29c } 
		.s32 { fill: #44a39a } 
		.s33 { fill: #44a499 } 
		.s34 { fill: #45a497 } 
		.s35 { fill: #46a595 } 
		.s36 { fill: #47a694 } 
		.s37 { fill: #47a692 } 
		.s38 { fill: #47a790 } 
		.s39 { fill: #48a88f } 
		.s40 { fill: #49a88c } 
		.s41 { fill: #49a98b } 
		.s42 { fill: #4aaa89 } 
		.s43 { fill: #4aaa87 } 
		.s44 { fill: #4bab85 } 
		.s45 { fill: #4cac84 } 
		.s46 { fill: #4cac82 } 
		.s47 { fill: #4dad80 } 
		.s48 { fill: #4ead7e } 
		.s49 { fill: #4eae7c } 
		.s50 { fill: #4faf7b } 
		.s51 { fill: #4faf79 } 
		.s52 { fill: #4fb077 } 
		.s53 { fill: #51b175 } 
		.s54 { fill: #51b173 } 
		.s55 { fill: #51b271 } 
		.s56 { fill: #52b36f } 
		.s57 { fill: #52b36e } 
		.s58 { fill: #54b46b } 
		.s59 { fill: #54b56a } 
		.s60 { fill: #54b568 } 
		.s61 { fill: #55b666 } 
		.s62 { fill: #56b764 } 
		.s63 { fill: #56b762 } 
		.s64 { fill: #57b860 } 
		.s65 { fill: #57b85e } 
		.s66 { fill: #58b95c } 
		.s67 { fill: #59ba5a } 
		.s68 { fill: #59ba58 } 
		.s69 { fill: #5abb56 } 
		.s70 { fill: #5abc54 } 
		.s71 { fill: #5bbc52 } 
		.s72 { fill: #5cbd50 } 
		.s73 { fill: #5cbd4e } 
		.s74 { fill: #5cbe4c } 
		.s75 { fill: #5ebf4a } 
		.s76 { fill: #5ebf49 } 
		.s77 { fill: #5ebf4b } 
		.s78 { fill: #5ebf4d } 
		.s79 { fill: #5ec050 } 
		.s80 { fill: #5fc051 } 
		.s81 { fill: #5ec053 } 
		.s82 { fill: #5fc055 } 
		.s83 { fill: #5fc156 } 
		.s84 { fill: #5fc158 } 
		.s85 { fill: #5fc15a } 
		.s86 { fill: #5fc15c } 
		.s87 { fill: #60c25e } 
		.s88 { fill: #60c260 } 
		.s89 { fill: #5fc262 } 
		.s90 { fill: #60c263 } 
		.s91 { fill: #60c265 } 
		.s92 { fill: #61c367 } 
		.s93 { fill: #60c369 } 
		.s94 { fill: #60c36a } 
		.s95 { fill: #61c36c } 
		.s96 { fill: #61c46e } 
		.s97 { fill: #62c470 } 
		.s98 { fill: #61c472 } 
		.s99 { fill: #61c474 } 
		.s100 { fill: #62c576 } 
		.s101 { fill: #62c577 } 
		.s102 { fill: #62c579 } 
		.s103 { fill: #62c57b } 
		.s104 { fill: #62c67d } 
		.s105 { fill: #63c67f } 
		.s106 { fill: #62c681 } 
		.s107 { fill: #63c783 } 
		.s108 { fill: #63c784 } 
		.s109 { fill: #64c786 } 
		.s110 { fill: #63c788 } 
		.s111 { fill: #63c78a } 
		.s112 { fill: #64c88c } 
		.s113 { fill: #64c88e } 
		.s114 { fill: #65c890 } 
		.s115 { fill: #64c992 } 
		.s116 { fill: #64c993 } 
		.s117 { fill: #65c995 } 
		.s118 { fill: #65c997 } 
		.s119 { fill: #65ca99 } 
		.s120 { fill: #65ca9b } 
		.s121 { fill: #65ca9d } 
		.s122 { fill: #66cb9f } 
		.s123 { fill: #65cba0 } 
		.s124 { fill: #66cba2 } 
		.s125 { fill: #66cba4 } 
		.s126 { fill: #66cca6 } 
		.s127 { fill: #67cca8 } 
		.s128 { fill: #66ccaa } 
		.s129 { fill: #67cdac } 
		.s130 { fill: #67cdad } 
		.s131 { fill: #66cdaf } 
		.s132 { fill: #67cdb2 } 
		.s133 { fill: #67ceb4 } 
		.s134 { fill: #68ceb5 } 
		.s135 { fill: #68ceb7 } 
		.s136 { fill: #67ceb9 } 
		.s137 { fill: #68cfbb } 
		.s138 { fill: #68cfbd } 
		.s139 { fill: #69d0bf } 
		.s140 { fill: #68d0c1 } 
		.s141 { fill: #68d0c2 } 
		.s142 { fill: #69d0c4 } 
		.s143 { fill: #69d1c6 } 
		.s144 { fill: #69d1c8 } 
		.s145 { fill: #69d1ca } 
		.s146 { fill: #69d1cc } 
		.s147 { fill: #6ad2ce } 
		.s148 { fill: #6ad2cf } 
		.s149 { fill: #6ad3d1 } 
		.s150 { fill: #6ad3d4 } 
		.s151 { fill: #6ad3d6 } 
		.s152 { fill: #6bd3d7 } 
		.s153 { fill: #6ad4d9 } 
		.s154 { fill: #6bd4db } 
		.s155 { fill: #6bd4dd } 
		.s156 { fill: #6bd5df } 
		.s157 { fill: #6bd5e1 } 
		.s158 { fill: #6bd5e3 } 
		.s159 { fill: #6cd6e4 } 
		.s160 { fill: #6cd6e6 } 
		.s161 { fill: #6bd6e9 } 
		.s162 { fill: #6cd7eb } 
		.s163 { fill: #6cd7ec } 
		.s164 { fill: #6dd7ee } 
		.s165 { fill: #6dd8f0 } 
		.s166 { fill: #6cd7ef } 
		.s167 { fill: #6bd5ee } 
		.s168 { fill: #6ad4ee } 
		.s169 { fill: #69d3ed } 
		.s170 { fill: #67d3ee } 
		.s171 { fill: #66d2ed } 
		.s172 { fill: #65d0ec } 
		.s173 { fill: #64cfec } 
		.s174 { fill: #64cfeb } 
		.s175 { fill: #63ceeb } 
		.s176 { fill: #62cdea } 
		.s177 { fill: #61cbea } 
		.s178 { fill: #60cbe9 } 
		.s179 { fill: #5fcae9 } 
		.s180 { fill: #5ec9e9 } 
		.s181 { fill: #5dc8e8 } 
		.s182 { fill: #5cc6e8 } 
		.s183 { fill: #5bc6e7 } 
		.s184 { fill: #5ac5e7 } 
		.s185 { fill: #59c4e6 } 
		.s186 { fill: #58c3e6 } 
		.s187 { fill: #58c2e5 } 
		.s188 { fill: #57c1e5 } 
		.s189 { fill: #56c0e5 } 
		.s190 { fill: #55bfe4 } 
		.s191 { fill: #54bee4 } 
		.s192 { fill: #53bde3 } 
		.s193 { fill: #52bce3 } 
		.s194 { fill: #51bbe2 } 
		.s195 { fill: #51bae2 } 
		.s196 { fill: #4fbae2 } 
		.s197 { fill: #4fb8e1 } 
		.s198 { fill: #4eb7e1 } 
		.s199 { fill: #4eb7e0 } 
		.s200 { fill: #4db6e0 } 
		.s201 { fill: #4cb5df } 
		.s202 { fill: #4bb4df } 
		.s203 { fill: #4ab3de } 
		.s204 { fill: #49b2de } 
		.s205 { fill: #48b1de } 
		.s206 { fill: #47b0dd } 
		.s207 { fill: #46afdd } 
		.s208 { fill: #45aedc } 
		.s209 { fill: #44addc } 
		.s210 { fill: #43acdb } 
		.s211 { fill: #42aada } 
		.s212 { fill: #41a9da } 
		.s213 { fill: #40a9da } 
		.s214 { fill: #3fa8d9 } 
		.s215 { fill: #3ea7d9 } 
		.s216 { fill: #3da6d8 } 
		.s217 { fill: #3da5d8 } 
		.s218 { fill: #3ca4d7 } 
		.s219 { fill: #3ba3d7 } 
		.s220 { fill: #3aa2d6 } 
		.s221 { fill: #39a1d6 } 
		.s222 { fill: #38a0d6 } 
		.s223 { fill: #38a0d5 } 
		.s224 { fill: #379fd5 } 
		.s225 { fill: #369ed5 } 
		.s226 { fill: #359dd4 } 
		.s227 { fill: #349cd3 } 
		.s228 { fill: #339bd3 } 
		.s229 { fill: #329ad2 } 
		.s230 { fill: #3299d2 } 
		.s231 { fill: #3198d2 } 
		.s232 { fill: #3097d1 } 
		.s233 { fill: #2f97d1 } 
		.s234 { fill: #2e96d0 } 
		.s235 { fill: #2e95d0 } 
		.s236 { fill: #2d94cf } 
		.s237 { fill: #2c93cf } 
		.s238 { fill: #2b92ce } 
		.s239 { fill: #2a91ce } 
		.s240 { fill: #2991ce } 
		.s241 { fill: #298fcd } 
		.s242 { fill: #288fcd } 
		.s243 { fill: #278ecd } 
		.s244 { fill: #268dcc } 
		.s245 { fill: #258ccc } 
		.s246 { fill: #248bcb } 
		.s247 { fill: #248acb } 
		.s248 { fill: #2389ca } 
		.s249 { fill: #2289ca } 
		.s250 { fill: #2288ca } 
		.s251 { fill: #2187c9 } 
		.s252 { fill: #2086c9 } 
		.s253 { fill: #2c84c3 } 
		.s254 { fill: #318dcd } 
		.s255 { fill: #ffffff } 
		.s256 { fill: #d8d9da } 
	</style>
	<g id="Page 1" clip-path="url(#cp1)">
		<g id="Mask" clip-path="url(#cp2)">
			<path id="Path 525" class="s0" d="m183.9 284.8l158.7 89.7-2.3 8.9z"/>
			<path id="Path 526" class="s1" d="m183.9 284.8l156.8 97.1-2 7.3z"/>
			<path id="Path 527" class="s2" d="m183.9 284.8l155.2 102.9-2.2 7.2z"/>
			<path id="Path 528" class="s3" d="m183.9 284.8l153.5 108.7-2.3 7.1z"/>
			<path id="Path 529" class="s4" d="m183.9 284.8l151.7 114.4-2.4 7.1z"/>
			<path id="Path 530" class="s5" d="m183.9 284.8l149.8 120-2.5 7z"/>
			<path id="Path 531" class="s6" d="m183.9 284.8l147.8 125.6-2.6 6.9z"/>
			<path id="Path 532" class="s7" d="m183.9 284.8l145.7 131.1-2.7 6.8z"/>
			<path id="Path 533" class="s8" d="m183.9 284.8l143.6 136.5-2.8 6.7z"/>
			<path id="Path 534" class="s9" d="m183.9 284.8l141.3 141.8-2.9 6.6z"/>
			<path id="Path 535" class="s10" d="m183.9 284.8l139 147.1-3 6.4z"/>
			<path id="Path 536" class="s11" d="m183.9 284.8l136.6 152.2-3.1 6.4z"/>
			<path id="Path 537" class="s12" d="m183.9 284.8l134.1 157.3-3.2 6.2z"/>
			<path id="Path 538" class="s13" d="m183.9 284.8l131.5 162.3-3.3 6.1z"/>
			<path id="Path 539" class="s14" d="m183.9 284.8l128.9 167.1-3.4 6z"/>
			<path id="Path 540" class="s15" d="m183.9 284.8l126.2 171.9-3.5 5.9z"/>
			<path id="Path 541" class="s16" d="m183.9 284.8l123.4 176.6-3.6 5.7z"/>
			<path id="Path 542" class="s17" d="m183.9 284.8l120.5 181.1-3.7 5.6z"/>
			<path id="Path 543" class="s18" d="m183.9 284.8l117.5 185.6-3.8 5.4z"/>
			<path id="Path 544" class="s19" d="m183.9 284.8l114.5 189.9-3.9 5.3z"/>
			<path id="Path 545" class="s20" d="m183.9 284.8l111.4 194.2-3.9 5.1z"/>
			<path id="Path 546" class="s21" d="m183.9 284.8l108.2 198.3-4 5z"/>
			<path id="Path 547" class="s22" d="m183.9 284.8l105 202.3-4.1 4.8z"/>
			<path id="Path 548" class="s23" d="m183.9 284.8l101.7 206.1-4.2 4.7z"/>
			<path id="Path 549" class="s24" d="m183.9 284.8l98.4 209.9-4.3 4.5z"/>
			<path id="Path 550" class="s25" d="m183.9 284.8l95 213.5-4.4 4.3z"/>
			<path id="Path 551" class="s26" d="m183.9 284.8l91.5 217-4.4 4.2z"/>
			<path id="Path 552" class="s27" d="m183.9 284.8l88 220.3-4.5 4.1z"/>
			<path id="Path 553" class="s28" d="m183.9 284.8l84.4 223.6-4.5 3.8z"/>
			<path id="Path 554" class="s29" d="m183.9 284.8l80.8 226.6-4.6 3.7z"/>
			<path id="Path 555" class="s30" d="m183.9 284.8l77.1 229.6-4.6 3.5z"/>
			<path id="Path 556" class="s31" d="m183.9 284.8l73.4 232.4-4.7 3.4z"/>
			<path id="Path 557" class="s32" d="m183.9 284.8l69.6 235.1-4.7 3.2z"/>
			<path id="Path 558" class="s33" d="m183.9 284.8l65.8 237.6-4.8 3z"/>
			<path id="Path 559" class="s34" d="m183.9 284.8l62 240-4.9 2.8z"/>
			<path id="Path 560" class="s35" d="m183.9 284.8l58.1 242.3-4.9 2.6z"/>
			<path id="Path 561" class="s36" d="m183.9 284.8l54.2 244.4-5 2.4z"/>
			<path id="Path 562" class="s37" d="m183.9 284.8l50.2 246.3-4.9 2.3z"/>
			<path id="Path 563" class="s38" d="m183.9 284.8l46.3 248.1-5.1 2.1z"/>
			<path id="Path 564" class="s39" d="m183.9 284.8l42.2 249.8-5 1.9z"/>
			<path id="Path 565" class="s40" d="m183.9 284.8l38.2 251.3-5.1 1.7z"/>
			<path id="Path 566" class="s41" d="m183.9 284.8l34.2 252.6-5.1 1.5z"/>
			<path id="Path 567" class="s42" d="m183.9 284.8l30.1 253.8-5.1 1.3z"/>
			<path id="Path 568" class="s43" d="m183.9 284.8l26 254.9-5.2 1.1z"/>
			<path id="Path 569" class="s44" d="m183.9 284.8l21.9 255.8-5.2 0.9z"/>
			<path id="Path 570" class="s45" d="m183.9 284.8l17.7 256.5-5.1 0.7z"/>
			<path id="Path 571" class="s46" d="m183.9 284.8l13.6 257.1-5.2 0.5z"/>
			<path id="Path 572" class="s47" d="m183.9 284.8l9.5 257.5-5.2 0.4z"/>
			<path id="Path 573" class="s48" d="m183.9 284.8l5.3 257.8-5.2 0.2z"/>
			<path id="Path 574" class="s49" d="m183.9 284.8l1.2 257.9h-5.2z"/>
			<path id="Path 575" class="s50" d="m183.9 284.8l-3 257.9-5.2-0.2z"/>
			<path id="Path 576" class="s51" d="m183.9 284.8l-7.1 257.7-5.2-0.4z"/>
			<path id="Path 577" class="s52" d="m183.9 284.8l-11.3 257.4-5.2-0.7z"/>
			<path id="Path 578" class="s53" d="m183.9 284.8l-15.4 256.9-5.2-0.9z"/>
			<path id="Path 579" class="s54" d="m183.9 284.8l-19.6 256.2-5.1-1z"/>
			<path id="Path 580" class="s55" d="m183.9 284.8l-23.7 255.4-5.1-1.2z"/>
			<path id="Path 581" class="s56" d="m183.9 284.8l-27.8 254.4-5.1-1.4z"/>
			<path id="Path 582" class="s57" d="m183.9 284.8l-31.9 253.3-5-1.6z"/>
			<path id="Path 583" class="s58" d="m183.9 284.8l-35.9 252-5.1-1.7z"/>
			<path id="Path 584" class="s59" d="m183.9 284.8l-40 250.6-5-1.9z"/>
			<path id="Path 585" class="s60" d="m183.9 284.8l-44 249.1-5-2.2z"/>
			<path id="Path 586" class="s61" d="m183.9 284.8l-48 247.3-5-2.3z"/>
			<path id="Path 587" class="s62" d="m183.9 284.8l-52 245.5-4.9-2.6z"/>
			<path id="Path 588" class="s63" d="m183.9 284.8l-55.9 243.4-4.9-2.7z"/>
			<path id="Path 589" class="s64" d="m183.9 284.8l-59.8 241.3-4.8-2.9z"/>
			<path id="Path 590" class="s65" d="m183.9 284.8l-63.7 239-4.8-3.1z"/>
			<path id="Path 591" class="s66" d="m183.9 284.8l-67.5 236.5-4.7-3.2z"/>
			<path id="Path 592" class="s67" d="m183.9 284.8l-71.3 233.9-4.7-3.4z"/>
			<path id="Path 593" class="s68" d="m183.9 284.8l-75 231.2-4.7-3.6z"/>
			<path id="Path 594" class="s69" d="m183.9 284.8l-78.7 228.3-4.6-3.8z"/>
			<path id="Path 595" class="s70" d="m183.9 284.8l-82.4 225.3-4.5-3.9z"/>
			<path id="Path 596" class="s71" d="m183.9 284.8l-86 222.1-4.4-4.1z"/>
			<path id="Path 597" class="s72" d="m183.9 284.8l-89.5 218.9-4.4-4.3z"/>
			<path id="Path 598" class="s73" d="m183.9 284.8l-93 215.4-4.3-4.4z"/>
			<path id="Path 599" class="s74" d="m183.9 284.8l-96.5 211.9-4.2-4.6z"/>
			<path id="Path 600" class="s75" d="m183.9 284.8l-99.9 208.2-4.1-4.7z"/>
			<path id="Path 601" class="s76" d="m183.9 284.8l-103.2 204.4-4-4.9z"/>
			<path id="Path 602" class="s77" d="m183.9 284.8l-106.4 200.5-4-5.1z"/>
			<path id="Path 603" class="s78" d="m183.9 284.8l-109.6 196.5-3.9-5.2z"/>
			<path id="Path 604" class="s79" d="m183.9 284.8l-112.8 192.3-3.8-5.3z"/>
			<path id="Path 605" class="s80" d="m183.9 284.8l-115.8 188-3.8-5.5z"/>
			<path id="Path 606" class="s81" d="m183.9 284.8l-118.8 183.6-3.7-5.6z"/>
			<path id="Path 607" class="s82" d="m183.9 284.8l-121.7 179.1-3.6-5.7z"/>
			<path id="Path 608" class="s83" d="m183.9 284.8l-124.6 174.5-3.4-5.9z"/>
			<path id="Path 609" class="s84" d="m183.9 284.8l-127.4 169.8-3.3-6z"/>
			<path id="Path 610" class="s85" d="m183.9 284.8l-130 165-3.3-6.1z"/>
			<path id="Path 611" class="s86" d="m183.9 284.8l-132.7 160.1-3.1-6.3z"/>
			<path id="Path 612" class="s87" d="m183.9 284.8l-135.2 155.1-3.1-6.4z"/>
			<path id="Path 613" class="s88" d="m183.9 284.8l-137.7 150-2.9-6.5z"/>
			<path id="Path 614" class="s89" d="m183.9 284.8l-140 144.8-2.9-6.6z"/>
			<path id="Path 615" class="s90" d="m183.9 284.8l-142.3 139.5-2.8-6.7z"/>
			<path id="Path 616" class="s91" d="m183.9 284.8l-144.5 134.1-2.7-6.8z"/>
			<path id="Path 617" class="s92" d="m183.9 284.8l-146.6 128.7-2.6-6.9z"/>
			<path id="Path 618" class="s93" d="m183.9 284.8l-148.7 123.2-2.4-7z"/>
			<path id="Path 619" class="s94" d="m183.9 284.8l-150.6 117.6-2.3-7.1z"/>
			<path id="Path 620" class="s95" d="m183.9 284.8l-152.4 111.9-2.2-7.2z"/>
			<path id="Path 621" class="s96" d="m183.9 284.8l-154.2 106.1-2.1-7.2z"/>
			<path id="Path 622" class="s97" d="m183.9 284.8l-155.9 100.3-1.9-7.3z"/>
			<path id="Path 623" class="s98" d="m183.9 284.8l-157.4 94.5-1.9-7.4z"/>
			<path id="Path 624" class="s99" d="m183.9 284.8l-158.9 88.6-1.7-7.5z"/>
			<path id="Path 625" class="s100" d="m183.9 284.8l-160.3 82.6-1.6-7.5z"/>
			<path id="Path 626" class="s101" d="m183.9 284.8l-161.6 76.6-1.4-7.6z"/>
			<path id="Path 627" class="s102" d="m183.9 284.8l-162.7 70.5-1.4-7.6z"/>
			<path id="Path 628" class="s103" d="m183.9 284.8l-163.8 64.4-1.3-7.7z"/>
			<path id="Path 629" class="s104" d="m183.9 284.8l-164.8 58.2-1.1-7.7z"/>
			<path id="Path 630" class="s105" d="m183.9 284.8l-165.7 52.1-1-7.8z"/>
			<path id="Path 631" class="s106" d="m183.9 284.8l-166.5 45.9-0.9-7.9z"/>
			<path id="Path 632" class="s107" d="m183.9 284.8l-167.2 39.6-0.7-7.8z"/>
			<path id="Path 633" class="s108" d="m183.9 284.8l-167.8 33.3-0.6-7.8z"/>
			<path id="Path 634" class="s109" d="m183.9 284.8l-168.3 27.1-0.4-7.9z"/>
			<path id="Path 635" class="s110" d="m183.9 284.8l-168.6 20.8-0.4-7.9z"/>
			<path id="Path 636" class="s111" d="m183.9 284.8l-168.9 14.4-0.3-7.9z"/>
			<path id="Path 637" class="s112" d="m183.9 284.8l-169.1 8.1-0.1-7.9z"/>
			<path id="Path 638" class="s113" d="m183.9 284.8l-169.2 1.8v-7.9z"/>
			<path id="Path 639" class="s114" d="m183.9 284.8l-169.2-4.5 0.2-8z"/>
			<path id="Path 640" class="s115" d="m183.9 284.8l-169-10.9 0.2-7.9z"/>
			<path id="Path 641" class="s116" d="m183.9 284.8l-168.8-17.2 0.4-7.9z"/>
			<path id="Path 642" class="s117" d="m183.9 284.8l-168.5-23.5 0.6-7.9z"/>
			<path id="Path 643" class="s118" d="m183.9 284.8l-168.1-29.8 0.7-7.8z"/>
			<path id="Path 644" class="s119" d="m183.9 284.8l-167.5-36.1 0.8-7.8z"/>
			<path id="Path 645" class="s120" d="m183.9 284.8l-166.9-42.3 0.9-7.8z"/>
			<path id="Path 646" class="s121" d="m183.9 284.8l-166.2-48.6 1.1-7.7z"/>
			<path id="Path 647" class="s122" d="m183.9 284.8l-165.3-54.8 1.1-7.7z"/>
			<path id="Path 648" class="s123" d="m183.9 284.8l-164.4-60.9 1.3-7.7z"/>
			<path id="Path 649" class="s124" d="m183.9 284.8l-163.4-67.1 1.4-7.6z"/>
			<path id="Path 650" class="s125" d="m183.9 284.8l-162.2-73.2 1.5-7.5z"/>
			<path id="Path 651" class="s126" d="m183.9 284.8l-161-79.2 1.6-7.5z"/>
			<path id="Path 652" class="s127" d="m183.9 284.8l-159.7-85.2 1.8-7.4z"/>
			<path id="Path 653" class="s128" d="m183.9 284.8l-158.3-91.1 1.9-7.4z"/>
			<path id="Path 654" class="s129" d="m183.9 284.8l-156.7-97 2-7.3z"/>
			<path id="Path 655" class="s130" d="m183.9 284.8l-155.1-102.9 2.1-7.2z"/>
			<path id="Path 656" class="s131" d="m183.9 284.8l-153.4-108.6 2.2-7.2z"/>
			<path id="Path 657" class="s132" d="m183.9 284.8l-151.6-114.4 2.3-7z"/>
			<path id="Path 658" class="s133" d="m183.9 284.8l-149.7-120 2.4-7z"/>
			<path id="Path 659" class="s134" d="m183.9 284.8l-147.8-125.6 2.6-6.8z"/>
			<path id="Path 660" class="s135" d="m183.9 284.8l-145.7-131 2.7-6.8z"/>
			<path id="Path 661" class="s136" d="m183.9 284.8l-143.6-136.5 2.9-6.6z"/>
			<path id="Path 662" class="s137" d="m183.9 284.8l-141.3-141.8 2.9-6.5z"/>
			<path id="Path 663" class="s138" d="m183.9 284.8l-139-147 3-6.5z"/>
			<path id="Path 664" class="s139" d="m183.9 284.8l-136.6-152.2 3.1-6.3z"/>
			<path id="Path 665" class="s140" d="m183.9 284.8l-134.1-157.3 3.2-6.2z"/>
			<path id="Path 666" class="s141" d="m183.9 284.8l-131.5-162.2 3.3-6.1z"/>
			<path id="Path 667" class="s142" d="m183.9 284.8l-128.9-167.1 3.5-6z"/>
			<path id="Path 668" class="s143" d="m183.9 284.8l-126.1-171.9 3.5-5.8z"/>
			<path id="Path 669" class="s144" d="m183.9 284.8l-123.3-176.5 3.6-5.7z"/>
			<path id="Path 670" class="s145" d="m183.9 284.8l-120.4-181.1 3.6-5.6z"/>
			<path id="Path 671" class="s146" d="m183.9 284.8l-117.5-185.5 3.8-5.5z"/>
			<path id="Path 672" class="s147" d="m183.9 284.8l-114.5-189.9 3.9-5.3z"/>
			<path id="Path 673" class="s148" d="m183.9 284.8l-111.4-194.1 4-5.1z"/>
			<path id="Path 674" class="s149" d="m183.9 284.8l-108.2-198.2 4-5z"/>
			<path id="Path 675" class="s150" d="m183.9 284.8l-105-202.2 4.1-4.8z"/>
			<path id="Path 676" class="s151" d="m183.9 284.8l-101.7-206.1 4.2-4.6z"/>
			<path id="Path 677" class="s152" d="m183.9 284.8l-98.4-209.8 4.3-4.5z"/>
			<path id="Path 678" class="s153" d="m183.9 284.8l-94.9-213.4 4.3-4.4z"/>
			<path id="Path 679" class="s154" d="m183.9 284.8l-91.5-216.9 4.4-4.2z"/>
			<path id="Path 680" class="s155" d="m183.9 284.8l-88-220.3 4.5-4z"/>
			<path id="Path 681" class="s156" d="m183.9 284.8l-84.4-223.5 4.5-3.9z"/>
			<path id="Path 682" class="s157" d="m183.9 284.8l-80.8-226.6 4.6-3.7z"/>
			<path id="Path 683" class="s158" d="m183.9 284.8l-77.1-229.5 4.7-3.6z"/>
			<path id="Path 684" class="s159" d="m183.9 284.8l-73.4-232.4 4.7-3.3z"/>
			<path id="Path 685" class="s160" d="m183.9 284.8l-69.6-235 4.8-3.2z"/>
			<path id="Path 686" class="s161" d="m183.9 284.8l-65.8-237.6 4.8-3z"/>
			<path id="Path 687" class="s162" d="m183.9 284.8l-62-240 4.9-2.8z"/>
			<path id="Path 688" class="s163" d="m183.9 284.8l-58.1-242.2 4.9-2.6z"/>
			<path id="Path 689" class="s164" d="m183.9 284.8l-54.2-244.3 5-2.4z"/>
			<path id="Path 690" class="s165" d="m183.9 284.8l-50.2-246.3 5-2.2z"/>
			<path id="Path 691" class="s166" d="m183.9 284.8l-46.2-248.1 5-2z"/>
			<path id="Path 692" class="s167" d="m183.9 284.8l-42.2-249.7 5-1.9z"/>
			<path id="Path 693" class="s168" d="m183.9 284.8l-38.2-251.2 5.1-1.7z"/>
			<path id="Path 694" class="s169" d="m183.9 284.8l-34.1-252.6 5.1-1.5z"/>
			<path id="Path 695" class="s170" d="m183.9 284.8l-30-253.8 5.1-1.3z"/>
			<path id="Path 696" class="s171" d="m183.9 284.8l-26-254.8 5.2-1.1z"/>
			<path id="Path 697" class="s172" d="m183.9 284.8l-21.8-255.7 5.1-0.9z"/>
			<path id="Path 698" class="s173" d="m183.9 284.8l-17.7-256.5 5.2-0.7z"/>
			<path id="Path 699" class="s174" d="m183.9 284.8l-13.6-257 5.2-0.6z"/>
			<path id="Path 700" class="s175" d="m183.9 284.8l-9.4-257.5 5.1-0.3z"/>
			<path id="Path 701" class="s176" d="m183.9 284.8l-5.3-257.7 5.2-0.2z"/>
			<path id="Path 702" class="s177" d="m183.9 284.8l-1.1-257.9 5.2 0.1z"/>
			<path id="Path 703" class="s178" d="m183.9 284.8l3-257.8 5.2 0.2z"/>
			<path id="Path 704" class="s179" d="m183.9 284.8l7.2-257.6 5.1 0.4z"/>
			<path id="Path 705" class="s180" d="m183.9 284.8l11.3-257.3 5.2 0.6z"/>
			<path id="Path 706" class="s181" d="m183.9 284.8l15.5-256.8 5.1 0.8z"/>
			<path id="Path 707" class="s182" d="m183.9 284.8l19.6-256.1 5.1 1z"/>
			<path id="Path 708" class="s183" d="m183.9 284.8l23.7-255.3 5.1 1.2z"/>
			<path id="Path 709" class="s184" d="m183.9 284.8l27.8-254.4 5.1 1.4z"/>
			<path id="Path 710" class="s185" d="m183.9 284.8l31.9-253.3 5.1 1.6z"/>
			<path id="Path 711" class="s186" d="m183.9 284.8l36-252 5 1.8z"/>
			<path id="Path 712" class="s187" d="m183.9 284.8l40-250.6 5 2z"/>
			<path id="Path 713" class="s188" d="m183.9 284.8l44-249 5 2.2z"/>
			<path id="Path 714" class="s189" d="m183.9 284.8l48-247.3 5 2.4z"/>
			<path id="Path 715" class="s190" d="m183.9 284.8l52-245.4 4.9 2.5z"/>
			<path id="Path 716" class="s191" d="m183.9 284.8l55.9-243.4 4.9 2.7z"/>
			<path id="Path 717" class="s192" d="m183.9 284.8l59.8-241.2 4.9 2.9z"/>
			<path id="Path 718" class="s193" d="m183.9 284.8l63.7-238.9 4.8 3.1z"/>
			<path id="Path 719" class="s194" d="m183.9 284.8l67.5-236.5 4.8 3.3z"/>
			<path id="Path 720" class="s195" d="m183.9 284.8l71.3-233.9 4.7 3.5z"/>
			<path id="Path 721" class="s196" d="m183.9 284.8l75.1-231.1 4.6 3.6z"/>
			<path id="Path 722" class="s197" d="m183.9 284.8l78.8-228.2 4.5 3.7z"/>
			<path id="Path 723" class="s198" d="m183.9 284.8l82.4-225.2 4.5 3.9z"/>
			<path id="Path 724" class="s199" d="m183.9 284.8l86-222.1 4.5 4.1z"/>
			<path id="Path 725" class="s200" d="m183.9 284.8l89.6-218.8 4.3 4.3z"/>
			<path id="Path 726" class="s201" d="m183.9 284.8l93.1-215.4 4.3 4.5z"/>
			<path id="Path 727" class="s202" d="m183.9 284.8l96.5-211.8 4.2 4.6z"/>
			<path id="Path 728" class="s203" d="m183.9 284.8l99.9-208.2 4.1 4.8z"/>
			<path id="Path 729" class="s204" d="m183.9 284.8l103.2-204.4 4.1 4.9z"/>
			<path id="Path 730" class="s205" d="m183.9 284.8l106.5-200.4 4 5z"/>
			<path id="Path 731" class="s206" d="m183.9 284.8l109.7-196.4 3.9 5.2z"/>
			<path id="Path 732" class="s207" d="m183.9 284.8l112.8-192.2 3.8 5.3z"/>
			<path id="Path 733" class="s208" d="m183.9 284.8l115.9-188 3.7 5.5z"/>
			<path id="Path 734" class="s209" d="m183.9 284.8l118.8-183.6 3.7 5.7z"/>
			<path id="Path 735" class="s210" d="m183.9 284.8l121.8-179.1 3.5 5.8z"/>
			<path id="Path 736" class="s210" d="m183.9 284.8l124.6-174.5 3.5 5.9z"/>
			<path id="Path 737" class="s211" d="m183.9 284.8l127.4-169.8 3.4 6.1z"/>
			<path id="Path 738" class="s212" d="m183.9 284.8l130.1-164.9 3.2 6.1z"/>
			<path id="Path 739" class="s213" d="m183.9 284.8l132.7-160 3.2 6.2z"/>
			<path id="Path 740" class="s214" d="m183.9 284.8l135.2-155 3.1 6.4z"/>
			<path id="Path 741" class="s215" d="m183.9 284.8l137.7-149.9 3 6.5z"/>
			<path id="Path 742" class="s216" d="m183.9 284.8l140.1-144.7 2.8 6.6z"/>
			<path id="Path 743" class="s217" d="m183.9 284.8l142.3-139.4 2.8 6.7z"/>
			<path id="Path 744" class="s218" d="m183.9 284.8l144.6-134.1 2.6 6.8z"/>
			<path id="Path 745" class="s219" d="m183.9 284.8l146.7-128.6 2.5 6.9z"/>
			<path id="Path 746" class="s220" d="m183.9 284.8l148.7-123.1 2.4 7z"/>
			<path id="Path 747" class="s221" d="m183.9 284.8l150.6-117.5 2.3 7.1z"/>
			<path id="Path 748" class="s222" d="m183.9 284.8l152.5-111.8 2.2 7.1z"/>
			<path id="Path 749" class="s223" d="m183.9 284.8l154.2-106.1 2.1 7.3z"/>
			<path id="Path 750" class="s224" d="m183.9 284.8l155.9-100.3 2 7.3z"/>
			<path id="Path 751" class="s225" d="m183.9 284.8l157.5-94.4 1.8 7.4z"/>
			<path id="Path 752" class="s226" d="m183.9 284.8l158.9-88.5 1.8 7.5z"/>
			<path id="Path 753" class="s227" d="m183.9 284.8l160.3-82.5 1.6 7.5z"/>
			<path id="Path 754" class="s228" d="m183.9 284.8l161.6-76.5 1.5 7.6z"/>
			<path id="Path 755" class="s229" d="m183.9 284.8l162.8-70.4 1.3 7.6z"/>
			<path id="Path 756" class="s230" d="m183.9 284.8l163.9-64.3 1.2 7.6z"/>
			<path id="Path 757" class="s231" d="m183.9 284.8l164.9-58.2 1.1 7.7z"/>
			<path id="Path 758" class="s232" d="m183.9 284.8l165.7-52 1 7.8z"/>
			<path id="Path 759" class="s233" d="m183.9 284.8l166.5-45.8 0.9 7.8z"/>
			<path id="Path 760" class="s234" d="m183.9 284.8l167.2-39.6 0.7 7.9z"/>
			<path id="Path 761" class="s235" d="m183.9 284.8l167.8-33.3 0.6 7.9z"/>
			<path id="Path 762" class="s236" d="m183.9 284.8l168.3-27 0.5 7.9z"/>
			<path id="Path 763" class="s237" d="m183.9 284.8l168.7-20.7 0.3 7.9z"/>
			<path id="Path 764" class="s238" d="m183.9 284.8l169-14.4 0.2 7.9z"/>
			<path id="Path 765" class="s239" d="m183.9 284.8l169.1-8.1 0.1 8z"/>
			<path id="Path 766" class="s240" d="m183.9 284.8l169.2-1.7v7.9z"/>
			<path id="Path 767" class="s241" d="m183.9 284.8l169.2 4.6-0.2 7.9z"/>
			<path id="Path 768" class="s242" d="m183.9 284.8l169.1 10.9-0.3 7.9z"/>
			<path id="Path 769" class="s243" d="m183.9 284.8l168.8 17.2-0.4 7.9z"/>
			<path id="Path 770" class="s244" d="m183.9 284.8l168.5 23.6-0.5 7.8z"/>
			<path id="Path 771" class="s245" d="m183.9 284.8l168.1 29.9-0.7 7.8z"/>
			<path id="Path 772" class="s246" d="m183.9 284.8l167.6 36.1-0.8 7.9z"/>
			<path id="Path 773" class="s247" d="m183.9 284.8l166.9 42.4-0.9 7.8z"/>
			<path id="Path 774" class="s248" d="m183.9 284.8l166.2 48.6-1 7.8z"/>
			<path id="Path 775" class="s249" d="m183.9 284.8l165.4 54.8-1.2 7.7z"/>
			<path id="Path 776" class="s250" d="m183.9 284.8l164.4 61-1.3 7.7z"/>
			<path id="Path 777" class="s251" d="m183.9 284.8l163.4 67.1-1.4 7.6z"/>
			<path id="Path 778" class="s252" d="m183.9 284.8l162.3 73.2-1.6 7.6z"/>
			<path id="Path 779" class="s253" d="m183.9 284.8l161 79.3-1.6 7.5z"/>
			<path id="Path 780" class="s254" d="m183.9 284.8l159.7 85.3-1.4 5.9z"/>
		</g>
		<path id="Path 782" class="s255" d="m447.5 218v12.9l-0.6 0.6-4 3.7-0.3 0.4-3.2 3h-18.5v63.9h-20.5v-63.9h-26.6v-20.6z"/>
		<path id="Path 783" fill-rule="evenodd" class="s255" d="m464.8 176.1c0 23.9-19.3 43.2-43.3 43.2-18.2 0-33.9-11.3-40.2-27.4v26.6h-22.5l-33.1-50.3v50.1h-20.6v-84.4h22.6l33 50v-49.7h20.6v26c6.3-16 22-27.4 40.2-27.4 24 0 43.3 19.4 43.3 43.3zm-20.5 0c0-12.6-10.2-22.8-22.8-22.8-12.4 0-22.7 10.2-22.7 22.8 0 12.5 10.3 22.7 22.7 22.7 12.6 0 22.8-10.2 22.8-22.7z"/>
		<path id="Path 784" fill-rule="evenodd" class="s255" d="m507.8 266.5l14.6 36h-22.7l-12.5-32.1h-20.7v32.1h-20.6v-84.5h48.3c14.4 0 26.2 11.7 26.2 26.1 0 9.5-5.1 17.8-12.6 22.4zm-8.1-22.4c0-3-2.5-5.5-5.5-5.5h-27.7v11.2h27.7c3 0 5.5-2.5 5.5-5.7zm-167.4-2l0.3 0.8c1.6 2.8 4.4 3.8 7.2 4.7 6.4 2.1 13.2 3.5 19.4 6.2 2.6 1.1 5.1 2.4 7.4 4 3.3 2.3 6.2 5.2 8 8.8 3.4 6.5 3.1 14.6-0.2 21.3-3.3 6.5-9.4 11.6-16.1 14.5-4 1.7-8.4 2.7-12.7 3.1h24.6v20.6h-45.5v11.3h35.6v20.5h-35.6v11.3h45.5v7.6l13.6-12.6c6.3 6.3 15.2 9.9 24.1 9.7 4.8-0.1 10.6-2.3 9.7-8q-0.1-0.7-0.3-1.1c-1.7-3.7-5.2-5.2-8.6-6.3-5.3-1.8-10.9-2.9-16.2-4.7-5.3-1.8-10.5-4.3-14.3-8.6-4-4.2-6-10-6-15.8 0.1-5.8 2.4-11.6 6.4-15.8 4.2-4.9 10.3-7.8 16.6-9.5 7.7-2.2 15.9-2.3 23.8-0.7 8.1 1.6 15.8 5.1 22.3 10.3l-6.8 6.6c-3.1 3.1-6.3 6.1-9.5 9.1-5.7-6.4-15-9.4-23.3-7.4-3.5 0.9-7.5 3.3-6.3 7.5l0.4 0.9c1.5 2.8 4.3 3.7 7.1 4.7 6.4 2 13.2 3.5 19.5 6.2 2.5 1 5 2.4 7.3 3.9 3.3 2.3 6.2 5.2 8 8.9 3.2 6.2 3.2 13.8 0.3 20.2l10.8-10.1c6.3 6.3 15.3 9.9 24.1 9.7 4.8-0.1 10.6-2.3 9.8-8q-0.2-0.7-0.4-1.1c-1.7-3.7-5.2-5.2-8.5-6.3-5.4-1.8-10.9-2.9-16.2-4.7-5.4-1.8-10.6-4.3-14.3-8.6-4-4.2-6.1-10-6.1-15.8 0.2-5.8 2.5-11.6 6.4-15.8 4.3-4.9 10.3-7.8 16.6-9.5 7.7-2.2 16-2.3 23.8-0.7 8.1 1.6 15.9 5.1 22.4 10.3l-6.9 6.6c-3 3.1-6.3 6.1-9.4 9.1-5.7-6.4-15-9.4-23.4-7.4-3.5 0.9-7.5 3.3-6.2 7.5l0.3 0.9c1.6 2.8 4.4 3.7 7.1 4.7 6.5 2 13.2 3.5 19.5 6.2 2.6 1 5.1 2.4 7.4 3.9 3.3 2.3 6.2 5.2 8 8.9 3.4 6.5 3.1 14.6-0.3 21.3-3.2 6.5-9.3 11.6-16.1 14.5-6.7 2.9-14.3 3.6-21.6 3.1-11.3-0.8-22.5-4.7-31-12.1-3.4 3.9-7.7 6.9-12.4 9-6.8 2.9-14.4 3.6-21.6 3.1-10.7-0.7-21.2-4.3-29.6-10.8v7.5h-66.1v-84.2h31.6c-11.7-1-23.1-5.4-31.6-13.4l16.6-15.3c6.3 6.3 15.2 9.9 24 9.6 4.9-0.1 10.7-2.3 9.8-7.9q-0.2-0.8-0.3-1.1c-1.7-3.8-5.2-5.2-8.6-6.3-5.3-1.8-10.9-2.9-16.2-4.7-5.3-1.8-10.5-4.4-14.3-8.6-4-4.2-6-10-6-15.9 0.1-5.8 2.4-11.6 6.4-15.8 4.2-4.8 10.3-7.7 16.5-9.4 7.8-2.2 16-2.3 23.9-0.8 8.1 1.6 15.8 5.1 22.3 10.3l-6.9 6.7c-3 3-6.3 6-9.4 9-5.7-6.4-15-9.4-23.3-7.3-3.5 0.8-7.5 3.2-6.3 7.5z"/>
		<g id="Mask" clip-path="url(#cp3)">
			<path id="Path 786" class="s0" d="m424 260.1l175.8 77.4-2.5 7.6z"/>
			<path id="Path 787" class="s1" d="m424 260.1l173.7 83.7-2.2 6.3z"/>
			<path id="Path 788" class="s2" d="m424 260.1l171.9 88.8-2.3 6.2z"/>
			<path id="Path 789" class="s3" d="m424 260.1l170 93.7-2.5 6.2z"/>
			<path id="Path 790" class="s4" d="m424 260.1l168 98.7-2.6 6z"/>
			<path id="Path 791" class="s5" d="m424 260.1l165.9 103.5-2.7 6z"/>
			<path id="Path 792" class="s6" d="m424 260.1l163.8 108.3-2.9 5.9z"/>
			<path id="Path 793" class="s7" d="m424 260.1l161.5 113.1-3 5.8z"/>
			<path id="Path 794" class="s8" d="m424 260.1l159.1 117.7-3.1 5.8z"/>
			<path id="Path 795" class="s9" d="m424 260.1l156.6 122.3-3.2 5.7z"/>
			<path id="Path 796" class="s10" d="m424 260.1l154 126.9-3.3 5.5z"/>
			<path id="Path 797" class="s11" d="m424 260.1l151.3 131.3-3.4 5.5z"/>
			<path id="Path 798" class="s12" d="m424 260.1l148.6 135.7-3.6 5.3z"/>
			<path id="Path 799" class="s13" d="m424 260.1l145.7 140-3.6 5.2z"/>
			<path id="Path 800" class="s14" d="m424 260.1l142.8 144.2-3.8 5.1z"/>
			<path id="Path 801" class="s15" d="m424 260.1l139.8 148.3-3.9 5z"/>
			<path id="Path 802" class="s16" d="m424 260.1l136.7 152.3-4 4.9z"/>
			<path id="Path 803" class="s17" d="m424 260.1l133.5 156.2-4.1 4.8z"/>
			<path id="Path 804" class="s18" d="m424 260.1l130.2 160.1-4.2 4.6z"/>
			<path id="Path 805" class="s19" d="m424 260.1l126.8 163.8-4.2 4.6z"/>
			<path id="Path 806" class="s20" d="m424 260.1l123.4 167.5-4.4 4.4z"/>
			<path id="Path 807" class="s21" d="m424 260.1l119.9 171-4.5 4.3z"/>
			<path id="Path 808" class="s22" d="m424 260.1l116.3 174.4-4.5 4.2z"/>
			<path id="Path 809" class="s23" d="m424 260.1l112.7 177.8-4.6 4z"/>
			<path id="Path 810" class="s24" d="m424 260.1l109 181-4.7 3.9z"/>
			<path id="Path 811" class="s25" d="m424 260.1l105.2 184.1-4.8 3.8z"/>
			<path id="Path 812" class="s26" d="m424 260.1l101.4 187.1-4.9 3.7z"/>
			<path id="Path 813" class="s27" d="m424 260.1l97.5 190-5 3.5z"/>
			<path id="Path 814" class="s28" d="m424 260.1l93.5 192.8-5 3.3z"/>
			<path id="Path 815" class="s29" d="m424 260.1l89.5 195.5-5.1 3.2z"/>
			<path id="Path 816" class="s30" d="m424 260.1l85.4 198-5.1 3.1z"/>
			<path id="Path 817" class="s31" d="m424 260.1l81.3 200.5-5.2 2.8z"/>
			<path id="Path 818" class="s32" d="m424 260.1l77.1 202.8-5.3 2.7z"/>
			<path id="Path 819" class="s33" d="m424 260.1l72.9 204.9-5.3 2.6z"/>
			<path id="Path 820" class="s34" d="m424 260.1l68.6 207-5.3 2.4z"/>
			<path id="Path 821" class="s35" d="m424 260.1l64.3 208.9-5.4 2.3z"/>
			<path id="Path 822" class="s36" d="m424 260.1l60 210.8-5.5 2.1z"/>
			<path id="Path 823" class="s37" d="m424 260.1l55.6 212.4-5.5 2z"/>
			<path id="Path 824" class="s38" d="m424 260.1l51.2 214-5.5 1.8z"/>
			<path id="Path 825" class="s39" d="m424 260.1l46.8 215.4-5.6 1.6z"/>
			<path id="Path 826" class="s40" d="m424 260.1l42.3 216.7-5.6 1.5z"/>
			<path id="Path 827" class="s41" d="m424 260.1l37.8 217.9-5.6 1.3z"/>
			<path id="Path 828" class="s42" d="m424 260.1l33.3 218.9-5.7 1.2z"/>
			<path id="Path 829" class="s43" d="m424 260.1l28.7 219.8-5.7 1z"/>
			<path id="Path 830" class="s44" d="m424 260.1l24.2 220.6-5.7 0.8z"/>
			<path id="Path 831" class="s45" d="m424 260.1l19.6 221.2-5.7 0.7z"/>
			<path id="Path 832" class="s46" d="m424 260.1l15 221.7-5.7 0.5z"/>
			<path id="Path 833" class="s47" d="m424 260.1l10.4 222.1-5.7 0.3z"/>
			<path id="Path 834" class="s48" d="m424 260.1l5.8 222.4-5.7 0.1z"/>
			<path id="Path 835" class="s49" d="m424 260.1l1.2 222.5-5.7-0.1z"/>
			<path id="Path 836" class="s50" d="m424 260.1l-3.4 222.4-5.7-0.2z"/>
			<path id="Path 837" class="s51" d="m424 260.1l-8 222.3-5.7-0.4z"/>
			<path id="Path 838" class="s52" d="m424 260.1l-12.6 222-5.7-0.6z"/>
			<path id="Path 839" class="s53" d="m424 260.1l-17.1 221.5-5.8-0.7z"/>
			<path id="Path 840" class="s54" d="m424 260.1l-21.7 221-5.7-0.9z"/>
			<path id="Path 841" class="s55" d="m424 260.1l-26.3 220.3-5.7-1.1z"/>
			<path id="Path 842" class="s56" d="m424 260.1l-30.8 219.4-5.7-1.2z"/>
			<path id="Path 843" class="s57" d="m424 260.1l-35.4 218.5-5.6-1.4z"/>
			<path id="Path 844" class="s58" d="m424 260.1l-39.9 217.4-5.6-1.5z"/>
			<path id="Path 845" class="s59" d="m424 260.1l-44.4 216.2-5.5-1.7z"/>
			<path id="Path 846" class="s60" d="m424 260.1l-48.8 214.8-5.6-1.9z"/>
			<path id="Path 847" class="s61" d="m424 260.1l-53.2 213.3-5.5-2z"/>
			<path id="Path 848" class="s62" d="m424 260.1l-57.6 211.7-5.5-2.2z"/>
			<path id="Path 849" class="s63" d="m424 260.1l-62 210-5.4-2.4z"/>
			<path id="Path 850" class="s64" d="m424 260.1l-66.3 208.1-5.4-2.5z"/>
			<path id="Path 851" class="s65" d="m424 260.1l-70.6 206.1-5.3-2.6z"/>
			<path id="Path 852" class="s66" d="m424 260.1l-74.9 204-5.2-2.8z"/>
			<path id="Path 853" class="s67" d="m424 260.1l-79.1 201.7-5.1-2.9z"/>
			<path id="Path 854" class="s68" d="m424 260.1l-83.2 199.4-5.1-3.1z"/>
			<path id="Path 855" class="s69" d="m424 260.1l-87.3 196.9-5.1-3.2z"/>
			<path id="Path 856" class="s70" d="m424 260.1l-91.4 194.3-4.9-3.4z"/>
			<path id="Path 857" class="s71" d="m424 260.1l-95.3 191.6-5-3.6z"/>
			<path id="Path 858" class="s72" d="m424 260.1l-99.3 188.8-4.8-3.7z"/>
			<path id="Path 859" class="s73" d="m424 260.1l-103.2 185.8-4.7-3.8z"/>
			<path id="Path 860" class="s74" d="m424 260.1l-107 182.8-4.7-4z"/>
			<path id="Path 861" class="s75" d="m424 260.1l-110.7 179.6-4.6-4.1z"/>
			<path id="Path 862" class="s76" d="m424 260.1l-114.4 176.3-4.5-4.2z"/>
			<path id="Path 863" class="s77" d="m424 260.1l-118 172.9-4.4-4.3z"/>
			<path id="Path 864" class="s78" d="m424 260.1l-121.6 169.4-4.3-4.4z"/>
			<path id="Path 865" class="s79" d="m424 260.1l-125 165.8-4.3-4.6z"/>
			<path id="Path 866" class="s80" d="m424 260.1l-128.4 162.2-4.2-4.8z"/>
			<path id="Path 867" class="s81" d="m424 260.1l-131.7 158.4-4.1-4.9z"/>
			<path id="Path 868" class="s82" d="m424 260.1l-135 154.5-3.9-5z"/>
			<path id="Path 869" class="s83" d="m424 260.1l-138.1 150.5-3.9-5.1z"/>
			<path id="Path 870" class="s84" d="m424 260.1l-141.2 146.5-3.7-5.2z"/>
			<path id="Path 871" class="s85" d="m424 260.1l-144.2 142.3-3.6-5.3z"/>
			<path id="Path 872" class="s86" d="m424 260.1l-147.1 138.1-3.5-5.4z"/>
			<path id="Path 873" class="s87" d="m424 260.1l-149.9 133.7-3.4-5.5z"/>
			<path id="Path 874" class="s88" d="m424 260.1l-152.6 129.3-3.3-5.6z"/>
			<path id="Path 875" class="s89" d="m424 260.1l-155.2 124.9-3.2-5.7z"/>
			<path id="Path 876" class="s90" d="m424 260.1l-157.8 120.3-3-5.8z"/>
			<path id="Path 877" class="s91" d="m424 260.1l-160.2 115.7-3-5.9z"/>
			<path id="Path 878" class="s92" d="m424 260.1l-162.6 111-2.8-6z"/>
			<path id="Path 879" class="s93" d="m424 260.1l-164.8 106.2-2.7-6z"/>
			<path id="Path 880" class="s94" d="m424 260.1l-167 101.4-2.5-6.1z"/>
			<path id="Path 881" class="s95" d="m424 260.1l-169 96.5-2.4-6.2z"/>
			<path id="Path 882" class="s96" d="m424 260.1l-171 91.5-2.3-6.2z"/>
			<path id="Path 883" class="s97" d="m424 260.1l-172.8 86.5-2.2-6.3z"/>
			<path id="Path 884" class="s98" d="m424 260.1l-174.5 81.5-2.1-6.4z"/>
			<path id="Path 885" class="s99" d="m424 260.1l-176.2 76.4-1.9-6.5z"/>
			<path id="Path 886" class="s100" d="m424 260.1l-177.7 71.2-1.8-6.5z"/>
			<path id="Path 887" class="s101" d="m424 260.1l-179.1 66-1.7-6.5z"/>
			<path id="Path 888" class="s102" d="m424 260.1l-180.4 60.8-1.5-6.6z"/>
			<path id="Path 889" class="s103" d="m424 260.1l-181.6 55.5-1.4-6.6z"/>
			<path id="Path 890" class="s104" d="m424 260.1l-182.7 50.2-1.3-6.6z"/>
			<path id="Path 891" class="s105" d="m424 260.1l-183.7 44.9-1.1-6.7z"/>
			<path id="Path 892" class="s106" d="m424 260.1l-184.6 39.5-0.9-6.7z"/>
			<path id="Path 893" class="s107" d="m424 260.1l-185.3 34.1-0.9-6.7z"/>
			<path id="Path 894" class="s108" d="m424 260.1l-186 28.7-0.7-6.7z"/>
			<path id="Path 895" class="s109" d="m424 260.1l-186.5 23.3-0.6-6.8z"/>
			<path id="Path 896" class="s110" d="m424 260.1l-187 17.9-0.3-6.8z"/>
			<path id="Path 897" class="s111" d="m424 260.1l-187.3 12.4-0.2-6.8z"/>
			<path id="Path 898" class="s112" d="m424 260.1l-187.5 7-0.1-6.9z"/>
			<path id="Path 899" class="s113" d="m424 260.1l-187.6 1.5 0.1-6.8z"/>
			<path id="Path 900" class="s114" d="m424 260.1l-187.5-3.9 0.1-6.9z"/>
			<path id="Path 901" class="s115" d="m424 260.1l-187.4-9.4 0.3-6.8z"/>
			<path id="Path 902" class="s116" d="m424 260.1l-187.1-14.9 0.4-6.8z"/>
			<path id="Path 903" class="s117" d="m424 260.1l-186.8-20.3 0.6-6.8z"/>
			<path id="Path 904" class="s118" d="m424 260.1l-186.3-25.7 0.7-6.8z"/>
			<path id="Path 905" class="s119" d="m424 260.1l-185.7-31.1 0.9-6.8z"/>
			<path id="Path 906" class="s120" d="m424 260.1l-185-36.5 1-6.8z"/>
			<path id="Path 907" class="s121" d="m424 260.1l-184.2-41.9 1.1-6.7z"/>
			<path id="Path 908" class="s122" d="m424 260.1l-183.3-47.3 1.3-6.6z"/>
			<path id="Path 909" class="s123" d="m424 260.1l-182.3-52.6 1.5-6.6z"/>
			<path id="Path 910" class="s124" d="m424 260.1l-181.1-57.9 1.6-6.5z"/>
			<path id="Path 911" class="s125" d="m424 260.1l-179.9-63.1 1.7-6.5z"/>
			<path id="Path 912" class="s126" d="m424 260.1l-178.5-68.3 1.8-6.5z"/>
			<path id="Path 913" class="s127" d="m424 260.1l-177-73.5 1.9-6.4z"/>
			<path id="Path 914" class="s128" d="m424 260.1l-175.5-78.7 2.1-6.3z"/>
			<path id="Path 915" class="s129" d="m424 260.1l-173.8-83.7 2.3-6.3z"/>
			<path id="Path 916" class="s130" d="m424 260.1l-172-88.8 2.4-6.2z"/>
			<path id="Path 917" class="s131" d="m424 260.1l-170.1-93.7 2.5-6.2z"/>
			<path id="Path 918" class="s132" d="m424 260.1l-168.1-98.7 2.6-6z"/>
			<path id="Path 919" class="s133" d="m424 260.1l-166-103.5 2.7-6z"/>
			<path id="Path 920" class="s134" d="m424 260.1l-163.8-108.3 2.8-6z"/>
			<path id="Path 921" class="s135" d="m424 260.1l-161.5-113.1 2.9-5.8z"/>
			<path id="Path 922" class="s136" d="m424 260.1l-159.2-117.7 3.2-5.8z"/>
			<path id="Path 923" class="s137" d="m424 260.1l-156.7-122.3 3.3-5.7z"/>
			<path id="Path 924" class="s138" d="m424 260.1l-154.1-126.9 3.3-5.5z"/>
			<path id="Path 925" class="s139" d="m424 260.1l-151.4-131.3 3.4-5.5z"/>
			<path id="Path 926" class="s140" d="m424 260.1l-148.7-135.7 3.6-5.3z"/>
			<path id="Path 927" class="s141" d="m424 260.1l-145.8-140 3.7-5.2z"/>
			<path id="Path 928" class="s142" d="m424 260.1l-142.9-144.2 3.8-5.1z"/>
			<path id="Path 929" class="s143" d="m424 260.1l-139.8-148.3 3.8-5z"/>
			<path id="Path 930" class="s144" d="m424 260.1l-136.7-152.3 4-4.9z"/>
			<path id="Path 931" class="s145" d="m424 260.1l-133.5-156.2 4.1-4.8z"/>
			<path id="Path 932" class="s146" d="m424 260.1l-130.3-160.1 4.2-4.7z"/>
			<path id="Path 933" class="s147" d="m424 260.1l-126.9-163.8 4.3-4.6z"/>
			<path id="Path 934" class="s148" d="m424 260.1l-123.5-167.5 4.4-4.4z"/>
			<path id="Path 935" class="s149" d="m424 260.1l-120-171 4.5-4.3z"/>
			<path id="Path 936" class="s150" d="m424 260.1l-116.4-174.4 4.5-4.2z"/>
			<path id="Path 937" class="s151" d="m424 260.1l-112.8-177.8 4.7-4z"/>
			<path id="Path 938" class="s152" d="m424 260.1l-109.1-181 4.8-3.9z"/>
			<path id="Path 939" class="s153" d="m424 260.1l-105.3-184.1 4.8-3.8z"/>
			<path id="Path 940" class="s154" d="m424 260.1l-101.4-187.1 4.8-3.7z"/>
			<path id="Path 941" class="s155" d="m424 260.1l-97.5-190 4.9-3.5z"/>
			<path id="Path 942" class="s156" d="m424 260.1l-93.6-192.8 5-3.3z"/>
			<path id="Path 943" class="s157" d="m424 260.1l-89.6-195.5 5.1-3.2z"/>
			<path id="Path 944" class="s158" d="m424 260.1l-85.5-198 5.2-3.1z"/>
			<path id="Path 945" class="s159" d="m424 260.1l-81.4-200.5 5.2-2.8z"/>
			<path id="Path 946" class="s160" d="m424 260.1l-77.2-202.8 5.3-2.7z"/>
			<path id="Path 947" class="s161" d="m424 260.1l-73-205 5.3-2.5z"/>
			<path id="Path 948" class="s162" d="m424 260.1l-68.7-207 5.4-2.4z"/>
			<path id="Path 949" class="s163" d="m424 260.1l-64.4-209 5.4-2.2z"/>
			<path id="Path 950" class="s164" d="m424 260.1l-60.1-210.8 5.5-2.1z"/>
			<path id="Path 951" class="s165" d="m424 260.1l-55.7-212.4 5.5-2z"/>
			<path id="Path 952" class="s166" d="m424 260.1l-51.3-214 5.6-1.8z"/>
			<path id="Path 953" class="s167" d="m424 260.1l-46.8-215.4 5.5-1.7z"/>
			<path id="Path 954" class="s168" d="m424 260.1l-42.4-216.7 5.6-1.5z"/>
			<path id="Path 955" class="s169" d="m424 260.1l-37.9-217.9 5.7-1.3z"/>
			<path id="Path 956" class="s170" d="m424 260.1l-33.4-218.9 5.7-1.2z"/>
			<path id="Path 957" class="s171" d="m424 260.1l-28.8-219.8 5.7-1z"/>
			<path id="Path 958" class="s172" d="m424 260.1l-24.3-220.6 5.8-0.8z"/>
			<path id="Path 959" class="s173" d="m424 260.1l-19.7-221.2 5.7-0.7z"/>
			<path id="Path 960" class="s174" d="m424 260.1l-15.1-221.8 5.7-0.4z"/>
			<path id="Path 961" class="s175" d="m424 260.1l-10.5-222.1 5.7-0.3z"/>
			<path id="Path 962" class="s176" d="m424 260.1l-5.9-222.4 5.7-0.1z"/>
			<path id="Path 963" class="s177" d="m424 260.1l-1.3-222.5 5.7 0.1z"/>
			<path id="Path 964" class="s178" d="m424 260.1l3.3-222.4 5.7 0.2z"/>
			<path id="Path 965" class="s179" d="m424 260.1l7.9-222.3 5.7 0.4z"/>
			<path id="Path 966" class="s180" d="m424 260.1l12.5-222 5.7 0.6z"/>
			<path id="Path 967" class="s181" d="m424 260.1l17.1-221.5 5.7 0.7z"/>
			<path id="Path 968" class="s182" d="m424 260.1l21.6-221 5.8 0.9z"/>
			<path id="Path 969" class="s183" d="m424 260.1l26.2-220.3 5.7 1.1z"/>
			<path id="Path 970" class="s184" d="m424 260.1l30.8-219.4 5.6 1.2z"/>
			<path id="Path 971" class="s185" d="m424 260.1l35.3-218.5 5.6 1.4z"/>
			<path id="Path 972" class="s186" d="m424 260.1l39.8-217.4 5.6 1.5z"/>
			<path id="Path 973" class="s187" d="m424 260.1l44.3-216.2 5.6 1.7z"/>
			<path id="Path 974" class="s188" d="m424 260.1l48.7-214.8 5.6 1.8z"/>
			<path id="Path 975" class="s189" d="m424 260.1l53.2-213.3 5.5 2z"/>
			<path id="Path 976" class="s190" d="m424 260.1l57.6-211.7 5.4 2.2z"/>
			<path id="Path 977" class="s191" d="m424 260.1l61.9-210 5.4 2.4z"/>
			<path id="Path 978" class="s192" d="m424 260.1l66.3-208.1 5.3 2.5z"/>
			<path id="Path 979" class="s193" d="m424 260.1l70.5-206.1 5.3 2.6z"/>
			<path id="Path 980" class="s194" d="m424 260.1l74.8-204 5.2 2.8z"/>
			<path id="Path 981" class="s195" d="m424 260.1l79-201.8 5.2 3z"/>
			<path id="Path 982" class="s196" d="m424 260.1l83.1-199.4 5.2 3.1z"/>
			<path id="Path 983" class="s197" d="m424 260.1l87.2-196.9 5.1 3.2z"/>
			<path id="Path 984" class="s198" d="m424 260.1l91.3-194.3 5 3.4z"/>
			<path id="Path 985" class="s199" d="m424 260.1l95.3-191.6 4.9 3.5z"/>
			<path id="Path 986" class="s200" d="m424 260.1l99.2-188.8 4.8 3.7z"/>
			<path id="Path 987" class="s201" d="m424 260.1l103.1-185.8 4.7 3.8z"/>
			<path id="Path 988" class="s202" d="m424 260.1l106.9-182.8 4.7 4z"/>
			<path id="Path 989" class="s203" d="m424 260.1l110.6-179.6 4.6 4.1z"/>
			<path id="Path 990" class="s204" d="m424 260.1l114.3-176.3 4.5 4.2z"/>
			<path id="Path 991" class="s205" d="m424 260.1l117.9-172.9 4.5 4.3z"/>
			<path id="Path 992" class="s206" d="m424 260.1l121.5-169.4 4.3 4.4z"/>
			<path id="Path 993" class="s207" d="m424 260.1l124.9-165.9 4.3 4.7z"/>
			<path id="Path 994" class="s208" d="m424 260.1l128.3-162.2 4.2 4.8z"/>
			<path id="Path 995" class="s209" d="m424 260.1l131.7-158.4 4 4.9z"/>
			<path id="Path 996" class="s210" d="m424 260.1l134.9-154.5 3.9 5z"/>
			<path id="Path 997" class="s210" d="m424 260.1l138-150.5 3.9 5.1z"/>
			<path id="Path 998" class="s211" d="m424 260.1l141.1-146.5 3.8 5.2z"/>
			<path id="Path 999" class="s212" d="m424 260.1l144.1-142.3 3.6 5.3z"/>
			<path id="Path 1000" class="s213" d="m424 260.1l147-138.1 3.5 5.4z"/>
			<path id="Path 1001" class="s214" d="m424 260.1l149.8-133.7 3.4 5.5z"/>
			<path id="Path 1002" class="s215" d="m424 260.1l152.5-129.3 3.3 5.6z"/>
			<path id="Path 1003" class="s216" d="m424 260.1l155.2-124.9 3.1 5.7z"/>
			<path id="Path 1004" class="s217" d="m424 260.1l157.7-120.3 3.1 5.8z"/>
			<path id="Path 1005" class="s218" d="m424 260.1l160.1-115.7 3 5.9z"/>
			<path id="Path 1006" class="s219" d="m424 260.1l162.5-111 2.8 6z"/>
			<path id="Path 1007" class="s220" d="m424 260.1l164.7-106.2 2.7 6z"/>
			<path id="Path 1008" class="s221" d="m424 260.1l166.9-101.4 2.5 6.1z"/>
			<path id="Path 1009" class="s222" d="m424 260.1l168.9-96.5 2.5 6.2z"/>
			<path id="Path 1010" class="s223" d="m424 260.1l170.9-91.5 2.3 6.2z"/>
			<path id="Path 1011" class="s224" d="m424 260.1l172.7-86.5 2.2 6.3z"/>
			<path id="Path 1012" class="s225" d="m424 260.1l174.5-81.5 2 6.4z"/>
			<path id="Path 1013" class="s226" d="m424 260.1l176.1-76.4 1.9 6.5z"/>
			<path id="Path 1014" class="s227" d="m424 260.1l177.6-71.2 1.8 6.5z"/>
			<path id="Path 1015" class="s228" d="m424 260.1l179-66 1.7 6.5z"/>
			<path id="Path 1016" class="s229" d="m424 260.1l180.3-60.8 1.6 6.6z"/>
			<path id="Path 1017" class="s230" d="m424 260.1l181.6-55.5 1.3 6.6z"/>
			<path id="Path 1018" class="s231" d="m424 260.1l182.6-50.2 1.3 6.6z"/>
			<path id="Path 1019" class="s232" d="m424 260.1l183.6-44.9 1.1 6.7z"/>
			<path id="Path 1020" class="s233" d="m424 260.1l184.5-39.5 1 6.7z"/>
			<path id="Path 1021" class="s234" d="m424 260.1l185.3-34.1 0.8 6.7z"/>
			<path id="Path 1022" class="s235" d="m424 260.1l185.9-28.7 0.7 6.7z"/>
			<path id="Path 1023" class="s236" d="m424 260.1l186.5-23.3 0.5 6.8z"/>
			<path id="Path 1024" class="s237" d="m424 260.1l186.9-17.9 0.4 6.8z"/>
			<path id="Path 1025" class="s238" d="m424 260.1l187.2-12.4 0.2 6.8z"/>
			<path id="Path 1026" class="s239" d="m424 260.1l187.4-7 0.1 6.8z"/>
			<path id="Path 1027" class="s240" d="m424 260.1l187.5-1.5v6.8z"/>
			<path id="Path 1028" class="s241" d="m424 260.1l187.5 3.9-0.2 6.9z"/>
			<path id="Path 1029" class="s242" d="m424 260.1l187.3 9.4-0.3 6.8z"/>
			<path id="Path 1030" class="s243" d="m424 260.1l187.1 14.8-0.5 6.9z"/>
			<path id="Path 1031" class="s244" d="m424 260.1l186.7 20.3-0.6 6.8z"/>
			<path id="Path 1032" class="s245" d="m424 260.1l186.2 25.7-0.7 6.8z"/>
			<path id="Path 1033" class="s246" d="m424 260.1l185.6 31.1-0.8 6.8z"/>
			<path id="Path 1034" class="s247" d="m424 260.1l184.9 36.5-1 6.8z"/>
			<path id="Path 1035" class="s248" d="m424 260.1l184.1 41.9-1.1 6.7z"/>
			<path id="Path 1036" class="s249" d="m424 260.1l183.2 47.3-1.3 6.6z"/>
			<path id="Path 1037" class="s250" d="m424 260.1l182.2 52.6-1.5 6.6z"/>
			<path id="Path 1038" class="s251" d="m424 260.1l181 57.9-1.5 6.5z"/>
			<path id="Path 1039" class="s252" d="m424 260.1l179.8 63.1-1.7 6.5z"/>
			<path id="Path 1040" class="s253" d="m424 260.1l178.4 68.3-1.8 6.5z"/>
			<path id="Path 1041" class="s254" d="m424 260.1l177 73.5-1.6 5.1z"/>
		</g>
		<path id="Path 1044" fill-rule="evenodd" class="s256" d="m317.7 412.5q0.1 0 0.3 0.1l0.8 1q-0.9 1.1-2.4 1.8-1.4 0.6-3.4 0.6-1.7 0-3.1-0.6-1.4-0.6-2.4-1.7-1-1.1-1.6-2.6-0.5-1.5-0.5-3.3 0-1.9 0.6-3.4 0.6-1.5 1.6-2.6 1.1-1.1 2.6-1.7 1.5-0.6 3.3-0.6 1.7 0 3 0.6 1.3 0.5 2.3 1.5l-0.7 1q-0.1 0.1-0.2 0.2-0.1 0-0.3 0-0.1 0-0.3-0.1-0.1-0.1-0.4-0.2-0.2-0.2-0.5-0.4-0.3-0.2-0.7-0.3-0.4-0.2-1-0.3-0.5-0.1-1.2-0.1-1.3 0-2.4 0.5-1.1 0.4-1.9 1.2-0.7 0.8-1.2 2-0.4 1.2-0.4 2.7 0 1.5 0.4 2.6 0.5 1.2 1.2 2 0.8 0.9 1.8 1.3 1 0.4 2.2 0.4 0.7 0 1.3-0.1 0.5-0.1 1-0.2 0.5-0.2 0.9-0.5 0.5-0.3 0.9-0.7 0.2-0.1 0.4-0.1zm19-3.4v6.7h-2.2v-16.1h4.5q1.6 0 2.7 0.3 1.1 0.3 1.8 0.9 0.7 0.6 1.1 1.4 0.3 0.9 0.3 1.9 0 0.8-0.2 1.6-0.3 0.7-0.8 1.3-0.5 0.6-1.3 1-0.7 0.4-1.6 0.6 0.4 0.3 0.7 0.7l4.7 6.4h-2q-0.6 0-0.8-0.4l-4.2-5.8q-0.2-0.3-0.4-0.4-0.2-0.1-0.7-0.1zm0-1.6h2.3q0.9 0 1.7-0.2 0.7-0.3 1.2-0.7 0.5-0.4 0.7-1 0.3-0.6 0.3-1.3 0-1.4-1-2.1-0.9-0.8-2.8-0.8h-2.4zm34.5-7.8v1.8h-7.7v5.4h6.3v1.7h-6.3v5.5h7.7v1.8h-9.9v-16.2zm29 16.2h-1.7q-0.3 0-0.5-0.2-0.2-0.1-0.3-0.4l-1.5-3.9h-7.2l-1.5 3.9q-0.1 0.2-0.3 0.4-0.2 0.2-0.4 0.2h-1.7l6.4-16.2h2.2zm-10.5-5.9h6l-2.5-6.6q-0.3-0.6-0.5-1.5-0.2 0.5-0.3 0.9-0.1 0.3-0.2 0.6zm34.6-10.1v1.8h-5.2v14.3h-2.2v-14.3h-5.2v-1.8zm17.4 16.1h-2.1v-16.1h2.1zm15-16.1h1.8q0.3 0 0.4 0.1 0.2 0.2 0.3 0.4l4.6 11.4q0.1 0.4 0.3 0.8 0.1 0.5 0.2 1 0.1-0.5 0.2-1 0.1-0.4 0.3-0.8l4.5-11.4q0.1-0.2 0.3-0.3 0.2-0.2 0.5-0.2h1.7l-6.5 16.1h-2zm39.6 0v1.8h-7.7v5.3h6.2v1.7h-6.2v5.5h7.7v1.8h-9.9v-16.1zm-181.7 28.7q-0.1 0.2-0.2 0.2-0.1 0.1-0.3 0.1-0.2 0-0.4-0.2-0.3-0.2-0.7-0.4-0.3-0.2-0.9-0.4-0.5-0.2-1.3-0.2-0.7 0-1.3 0.2-0.6 0.2-0.9 0.5-0.4 0.4-0.6 0.8-0.2 0.5-0.2 1 0 0.7 0.3 1.1 0.4 0.5 0.9 0.8 0.6 0.3 1.3 0.5 0.6 0.3 1.4 0.5 0.7 0.3 1.4 0.6 0.7 0.3 1.2 0.7 0.6 0.5 0.9 1.2 0.3 0.7 0.3 1.7 0 1-0.3 2-0.4 0.9-1.1 1.6-0.7 0.7-1.7 1.1-1 0.3-2.3 0.3-1.5 0-2.8-0.5-1.3-0.6-2.2-1.6l0.6-1q0.1-0.1 0.2-0.2 0.2-0.1 0.3-0.1 0.3 0 0.6 0.3 0.3 0.2 0.7 0.5 0.5 0.3 1.1 0.6 0.7 0.2 1.6 0.2 0.8 0 1.4-0.2 0.6-0.2 1-0.6 0.4-0.4 0.7-0.9 0.2-0.6 0.2-1.2 0-0.7-0.4-1.2-0.3-0.5-0.8-0.8-0.6-0.3-1.3-0.5-0.6-0.2-1.4-0.5-0.7-0.2-1.4-0.5-0.7-0.3-1.2-0.8-0.6-0.5-0.9-1.2-0.3-0.7-0.3-1.8 0-0.8 0.3-1.6 0.3-0.8 1-1.5 0.6-0.6 1.5-0.9 1-0.4 2.2-0.4 1.3 0 2.4 0.4 1.1 0.4 2 1.3zm27.1-2.6v1.8h-5.2v14.3h-2.1v-14.3h-5.3v-1.8zm21.1 14.4q1 0 1.8-0.3 0.8-0.4 1.4-1 0.5-0.6 0.8-1.4 0.3-0.9 0.3-1.9v-9.8h2.1v9.8q0 1.4-0.4 2.6-0.5 1.2-1.3 2.1-0.8 0.8-2 1.3-1.2 0.5-2.7 0.5-1.4 0-2.6-0.5-1.2-0.5-2.1-1.3-0.8-0.9-1.2-2.1-0.5-1.2-0.5-2.6v-9.8h2.2v9.8q0 1 0.3 1.9 0.3 0.8 0.8 1.4 0.6 0.6 1.3 1 0.8 0.3 1.8 0.3zm36.7-6.3q0 1.8-0.6 3.3-0.6 1.5-1.6 2.5-1.1 1.1-2.5 1.7-1.5 0.5-3.3 0.5h-6v-16.1h6q1.8 0 3.3 0.6 1.4 0.6 2.5 1.6 1 1.1 1.6 2.6 0.6 1.5 0.6 3.3zm-2.3 0q0-1.5-0.4-2.7-0.4-1.1-1.1-1.9-0.8-0.8-1.8-1.3-1.1-0.4-2.4-0.4h-3.8v12.6h3.8q1.3 0 2.4-0.5 1-0.4 1.8-1.2 0.7-0.8 1.1-2 0.4-1.1 0.4-2.6zm20.4 8h-2.2v-16.1h2.2zm31.8-8q0 1.8-0.6 3.3-0.6 1.5-1.6 2.6-1 1.1-2.5 1.7-1.5 0.6-3.3 0.6-1.7 0-3.2-0.6-1.4-0.6-2.5-1.7-1-1.1-1.6-2.6-0.6-1.5-0.6-3.3 0-1.8 0.6-3.3 0.6-1.5 1.6-2.6 1.1-1.1 2.5-1.7 1.5-0.7 3.2-0.7 1.8 0 3.3 0.7 1.5 0.6 2.5 1.7 1 1.1 1.6 2.6 0.6 1.5 0.6 3.3zm-2.2 0q0-1.5-0.5-2.7-0.4-1.2-1.1-2-0.7-0.8-1.8-1.2-1.1-0.5-2.4-0.5-1.2 0-2.3 0.5-1.1 0.4-1.8 1.2-0.7 0.8-1.2 2-0.4 1.2-0.4 2.7 0 1.5 0.4 2.7 0.5 1.1 1.2 1.9 0.7 0.9 1.8 1.3 1.1 0.4 2.3 0.4 1.3 0 2.4-0.4 1.1-0.4 1.8-1.3 0.7-0.8 1.1-1.9 0.5-1.2 0.5-2.7z"/>
	</g>
</svg>